<?xml version="1.0" encoding="UTF-8" standalone="no"?>
<svg
   xmlns:dc="http://purl.org/dc/elements/1.1/"
   xmlns:cc="http://creativecommons.org/ns#"
   xmlns:rdf="http://www.w3.org/1999/02/22-rdf-syntax-ns#"
   xmlns:svg="http://www.w3.org/2000/svg"
   xmlns="http://www.w3.org/2000/svg"
   xmlns:xlink="http://www.w3.org/1999/xlink"
   xmlns:sodipodi="http://sodipodi.sourceforge.net/DTD/sodipodi-0.dtd"
   xmlns:inkscape="http://www.inkscape.org/namespaces/inkscape"
   height="290"
   width="700"
   version="1.1"
   id="svg216"
   sodipodi:docname="מוגובי.svg"
   inkscape:version="0.92.3 (2405546, 2018-03-11)">
  <metadata
     id="metadata220">
    <rdf:RDF>
      <cc:Work
         rdf:about="">
        <dc:format>image/svg+xml</dc:format>
        <dc:type
           rdf:resource="http://purl.org/dc/dcmitype/StillImage" />
        <dc:title></dc:title>
      </cc:Work>
    </rdf:RDF>
  </metadata>
  <sodipodi:namedview
     pagecolor="#ffffff"
     bordercolor="#666666"
     borderopacity="1"
     objecttolerance="10"
     gridtolerance="10"
     guidetolerance="10"
     inkscape:pageopacity="0"
     inkscape:pageshadow="2"
     inkscape:window-width="1366"
     inkscape:window-height="705"
     id="namedview218"
     showgrid="false"
     inkscape:zoom="0.50499195"
     inkscape:cx="479.98351"
     inkscape:cy="130.01761"
     inkscape:window-x="-8"
     inkscape:window-y="-8"
     inkscape:window-maximized="1"
     inkscape:current-layer="svg216" />
  <g
     transform="matrix(0.30115007,0,0,0.30115007,3.920452,0.09595058)"
     id="g8">
    <use
       height="439.95001"
       transform="translate(0.25,385.2)"
       width="1622.85"
       xlink:href="#shape0"
       id="use2"
       x="0"
       y="0" />
    <use
       height="12.7"
       transform="matrix(19.2681,0,0,19.2681,-17.3536,733.5134)"
       width="78.25"
       xlink:href="#sprite0"
       id="use4"
       x="0"
       y="0" />
    <use
       height="546.04999"
       transform="matrix(1.4251,0,0,1.4251,1480.866,0.0222)"
       width="582.79999"
       xlink:href="#sprite1"
       id="use6"
       x="0"
       y="0" />
  </g>
  <defs
     id="defs214">
    <g
       id="shape0"
       transform="translate(-0.25,-385.2)">
      <path
         d="m 0.25,449.3 3.45,-8.05 q 15.55,-39.65 85.05,-39.65 66.65,0 85.05,37.9 1.75,4.05 4.05,8.65 v 187.3 q -2.3,4.05 -5.2,8.05 -20.1,36.2 -83.3,36.2 Q 29,679.7 6.6,645.25 L 0.25,636.6 V 449.3"
         id="path10"
         inkscape:connector-curvature="0"
         style="fill:#000000;fill-rule:evenodd;stroke:none" />
      <path
         d="m 153.1,483.2 q 3.45,-40.8 28.15,-62.05 1.75,-1.75 3.45,-2.9 37.95,-28.7 128.15,-28.15 h 0.6 q 89.6,2.9 143.05,51.7 63.8,55.2 61.5,158.6 0,34.5 -0.6,69.55 8.05,-0.6 17.85,-2.3 l 2.85,-0.6 h 20.1 l 6.9,4.6 q 22.4,12.65 27,33.35 2.3,6.9 2.3,31 0,25.85 -13.8,46.55 -0.55,0.6 -0.55,1.15 l -1.15,1.15 q -20.1,24.7 -45.4,23 H 204.25 q -27,1.15 -45.4,-24.7 v -0.6 q -0.55,0 -0.55,-0.55 -14.4,-21.85 -12.65,-49.45 1.15,-48.85 38.5,-62.6 3.45,-1.75 6.9,-2.9 74.1,1.15 148.8,2.9 -0.55,-6.35 -0.55,-13.25 1.15,-32.15 1.7,-64.35 v -1.15 q -0.55,-25.85 -18.35,-43.65 0.55,0.55 1.1,0.55 -20.1,-17.8 -49.4,-19.5 h -1.15 q -30.45,0.55 -50.55,20.1 l -23,20.7 q -10.9,-10.35 -21.25,-20.7 -25.3,-23.55 -25.3,-63.2 v -2.3"
         id="path12"
         inkscape:connector-curvature="0"
         style="fill:#000000;fill-rule:evenodd;stroke:none" />
      <path
         d="m 698.4,424 5.2,7.45 37.35,332.7 -4.6,9.2 Q 721.4,810.7 657.6,817.6 597.85,823.35 572,794.05 l -7.45,-8.05 -36.8,-333.25 2.9,-8.05 q 9.75,-40.8 79.3,-48.3 65.5,-8.6 88.45,27.6"
         id="path14"
         inkscape:connector-curvature="0"
         style="fill:#000000;fill-rule:evenodd;stroke:none" />
      <path
         d="m 1021.35,459.05 -0.6,-0.55 q 37.35,55.15 21.85,145.95 V 605 l -31.05,186.15 -6.3,7.5 q -27,33.3 -89.65,22.4 l 0.6,0.6 q -57.45,-9.8 -73,-43.1 -23.55,24.7 -70.1,16.65 -63.75,-11.5 -64.35,-55.15 -0.55,-2.9 -0.55,-5.75 3.45,-23.55 7.45,-46.55 v -0.6 q 12.05,-74.1 63.8,-106.85 v -0.6 q 37.9,-25.85 91.9,-22.95 1.75,-13.8 -5.15,-25.3 h -0.6 v -1.15 q -5.7,-9.2 -16.65,-10.35 -14.95,-2.3 -27,8.05 l -25.3,20.7 q -10.3,-12.65 -20.1,-25.3 -20.7,-24.7 -14.95,-64.35 v -1.15 -1.15 q 8.05,-39.05 36.2,-56.3 l 2.9,-1.75 q 36.75,-20.65 102.25,-9.75 84.5,14.35 118.4,70.1"
         id="path16"
         inkscape:connector-curvature="0"
         style="fill:#000000;fill-rule:evenodd;stroke:none" />
      <path
         d="m 1023.65,440.65 3.45,-8.05 q 15.5,-39.6 85.05,-39.6 64.9,0 85,37.35 l 4.6,8 V 772.2 l -4.6,8.65 q -20.1,36.75 -83.85,36.75 -62.1,0 -83.35,-33.9 -3.45,-4.6 -6.3,-9.2 V 440.65"
         id="path18"
         inkscape:connector-curvature="0"
         style="fill:#000000;fill-rule:evenodd;stroke:none" />
      <path
         d="m 1480.45,401.6 h 0.55 q 152.3,8.6 141.35,172.95 l -5.7,90.8 q -11.5,170.05 -179.3,159.15 -49.4,-1.7 -77,-22.4 -1.15,-1.15 -2.85,-1.75 -1.15,-1.7 -2.9,-3.45 -5.75,-6.3 -9.75,-14.35 -31.6,31.6 -88.5,28.15 h -0.55 q -60.35,-4.6 -77,-40.8 l -6.9,-14.35 77,-178.15 q -15.55,-13.2 -24.75,-38.45 l -37.9,-106.35 9.75,-14.35 q 21.85,-34.45 81.6,-29.85 59.75,4.6 77.6,39.65 2.85,8 6.3,15.5 8.6,-9.2 17.8,-14.95 v -0.55 q 40.25,-29.9 101.15,-26.45 m -40.8,161.45 v -0.55 l -42.5,106.85 10.3,10.35 q 4.05,4 8.05,5.15 h 0.6 q 8.05,0.6 14.95,-5.15 h -0.6 q 7.45,-8.05 8.05,-21.25 v -0.6 l 6.9,-101.1 q 0.55,-11.5 1.15,-13.8 -0.6,4 -6.9,20.1"
         id="path20"
         inkscape:connector-curvature="0"
         style="fill:#000000;fill-rule:evenodd;stroke:none" />
      <path
         d="m 146.2,629.7 q -13.2,22.4 -56.9,22.4 -41.95,0 -57.45,-22.4 V 459.6 q 11.5,-21.25 56.9,-21.25 45.4,0 57.45,21.25 v 170.1"
         id="path22"
         inkscape:connector-curvature="0"
         style="fill:#ffffff;fill-rule:evenodd;stroke:none" />
      <path
         d="m 312.3,426.9 q 77,1.7 122.95,43.05 53.45,47.15 51.15,135.05 0,45.4 -0.6,90.8 0,10.35 24.7,9.2 12.65,0 29.9,-2.9 l 8.6,1.15 q 10.95,5.75 12.65,15.5 1.15,2.9 1.15,21.3 0,17.2 -8.6,28.7 -9.2,11.5 -20.7,11.5 l -329.25,1.15 q -12.65,0 -19.55,-12.65 -8.6,-12.65 -7.45,-28.7 0,-28.15 19.55,-36.8 93.05,1.75 185.6,2.9 -11.5,-12.65 -11.5,-44.25 1.15,-32.2 1.7,-64.95 0,-39.05 -27.55,-67.2 -29.3,-27.6 -70.7,-27.6 -43.1,-1.15 -74.1,27.6 -15.55,-14.4 -15.55,-39.65 2.3,-27 17.85,-41.4 32.75,-22.95 109.75,-21.8"
         id="path24"
         inkscape:connector-curvature="0"
         style="fill:#ffffff;fill-rule:evenodd;stroke:none" />
      <path
         d="m 708.1,762.95 q -11.55,24.05 -53.95,27.9 -41.45,3.85 -59.75,-15.4 l -34.65,-316 q 8.65,-22.15 53.95,-27.95 44.3,-3.85 59.7,15.45 l 34.7,316"
         id="path26"
         inkscape:connector-curvature="0"
         style="fill:#ffffff;fill-rule:evenodd;stroke:none" />
      <path
         d="m 897.9,423.8 q 67.4,11.55 96.3,56.85 29.9,46.25 17.35,123.3 Q 997.1,693.55 981.7,782.2 962.45,801.45 921,794.7 877.65,788 869,762.95 L 888.25,650.2 h -3.85 q -40.45,-7.7 -51.05,54.9 -3.85,25.05 -8.7,50.1 -13.45,19.3 -46.25,13.5 -35.65,-5.75 -38.5,-27.95 3.85,-21.2 6.75,-43.35 9.6,-59.7 50.05,-87.65 38.55,-24.1 97.35,-15.4 1.9,0.95 3.85,0.95 l 3.85,-25.05 q 5.75,-28.9 -9.65,-52.05 -12.5,-20.2 -38.55,-25.05 -27.9,-5.75 -52,15.45 -12.55,-17.35 -8.7,-40.5 4.85,-25 22.2,-36.6 30.8,-16.35 82.85,-7.7"
         id="path28"
         inkscape:connector-curvature="0"
         style="fill:#ffffff;fill-rule:evenodd;stroke:none" />
      <path
         d="m 1170.55,768.7 q -14.5,22.15 -56.85,22.15 -41.45,0 -57.8,-22.15 V 450.8 q 11.55,-21.2 56.8,-21.2 43.35,0 57.85,21.2 v 317.9"
         id="path30"
         inkscape:connector-curvature="0"
         style="fill:#ffffff;fill-rule:evenodd;stroke:none" />
      <path
         d="m 1584.8,667.55 q -8.7,138.75 -145.5,130.05 -40.45,-2.9 -60.7,-16.35 -9.6,-11.6 -8.65,-33.75 0.95,-26 15.4,-40.45 13.5,13.5 28.9,13.5 22.2,1.9 37.6,-12.55 17.35,-17.35 18.3,-43.35 3.85,-50.1 6.75,-101.15 2.9,-45.3 -27.95,-47.2 -23.1,-1.95 -38.55,39.5 l -79,196.55 q -23.1,34.65 -73.2,31.75 -38.55,-2.85 -52.05,-25.05 42.4,-96.3 83.85,-193.6 -26,-2.9 -35.65,-32.8 -16.4,-45.25 -32.75,-91.5 14.45,-19.25 53.95,-16.4 38.5,1.95 52,24.1 13.5,32.75 26,64.55 20.25,-37.55 44.35,-55.85 32.75,-23.15 80.9,-19.3 120.45,7.7 111.75,137.8 l -5.75,91.5"
         id="path32"
         inkscape:connector-curvature="0"
         style="fill:#ffffff;fill-rule:evenodd;stroke:none" />
    </g>
    <g
       id="sprite0"
       transform="translate(0.2,-0.05)">
      <use
         height="12.7"
         transform="translate(-0.2,0.05)"
         width="78.25"
         xlink:href="#shape1"
         id="use35"
         x="0"
         y="0" />
    </g>
    <g
       id="shape1"
       transform="translate(0.2,-0.05)">
      <path
         d="m 77.4,6 v 1.9 q 0,1.15 -0.6,1.65 Q 76.3,10 75.4,10 L 74.5,9.8 74.4,9.35 q 0,-0.3 0.15,-0.4 L 75.1,9.1 75.8,8.8 76.1,7.95 V 6 L 75.9,5.4 75.45,5.25 q -0.45,0 -0.75,0.7 l -1.35,3.8 -0.75,0.2 q -0.55,0 -0.7,-0.2 L 73.2,6.5 72.85,6.45 72.6,6.2 71.8,4.5 q 0.05,-0.2 0.6,-0.2 l 0.7,0.2 0.7,1.4 0.1,-0.35 q 0.5,-1.25 1.8,-1.25 0.75,0 1.15,0.35 0.55,0.4 0.55,1.35 m -6.35,1.9 q 0,1.15 -0.65,1.65 Q 69.9,10 69.05,10 L 68.15,9.8 68,9.4 68.2,8.95 68.75,9.15 69.4,8.85 69.7,8 V 6 L 69.5,5.45 69.1,5.25 Q 68.6,5.25 68.35,6 L 66.95,9.75 66.25,10 65.55,9.75 66.8,6.55 66.45,6.45 66.2,6.2 65.4,4.5 l 0.65,-0.2 0.7,0.2 0.7,1.4 0.1,-0.3 Q 68.1,4.3 69.35,4.3 70.1,4.3 70.5,4.65 71.05,5.1 71.05,6 V 7.9 M 64.7,4.5 v 2.45 q 0.05,1.35 -0.8,2.3 -0.85,0.8 -2.3,0.8 -1.5,0 -2.3,-0.8 -0.85,-0.85 -0.85,-2.3 v -2.4 q 0.25,-0.25 0.7,-0.25 0.5,0 0.65,0.25 V 7.1 q 0,1 0.45,1.5 0.5,0.55 1.35,0.55 0.9,0 1.3,-0.55 0.5,-0.5 0.5,-1.55 V 4.55 Q 63.65,4.3 64.1,4.3 l 0.6,0.2 M 62.25,4.55 V 8.4 L 61.6,8.65 60.95,8.4 V 4.55 Q 61.2,4.3 61.6,4.3 62,4.3 62.25,4.55 M 54.8,4.25 q 1.25,0 2.05,0.8 0.8,0.75 0.8,2.05 0,1.35 -0.9,2.15 -0.9,0.8 -2.15,0.8 L 52.75,9.55 52.55,9 q 0,-0.4 0.25,-0.55 0.6,0.65 1.55,0.65 0.85,0 1.35,-0.5 0.6,-0.6 0.6,-1.5 0,-0.9 -0.5,-1.45 -0.4,-0.5 -1,-0.5 -0.6,0 -0.9,0.35 -0.35,0.3 -0.35,0.75 0,0.4 0.35,0.7 0.3,0.3 0.65,0.3 L 55.4,7 55.55,7.3 55.3,7.8 54.9,8 54.4,8.1 Q 53.5,8.1 52.9,7.7 52.25,7.2 52.25,6.35 52.25,5.5 52.9,4.9 53.65,4.25 54.8,4.25 M 50.8,10 Q 50.3,10 50.1,9.75 V 6.3 L 49.85,5.55 49.2,5.35 H 48.15 L 48,5.55 v 4.2 L 47.3,10 46.65,9.75 V 5.2 q 0,-0.4 0.15,-0.65 0.15,-0.15 0.45,-0.15 h 2.1 q 2.1,0 2.1,1.9 V 9.75 L 50.8,10 M 42.4,6.1 v 2.1 q 0,1.85 -1.65,1.85 -0.45,0 -0.65,-0.2 L 39.9,9.4 40.1,8.95 q 0.15,0.2 0.4,0.2 0.55,0 0.55,-0.9 v -1.8 q 0,-0.85 0.4,-1.1 H 40.3 L 40.1,4.85 40.3,4.4 h 3.4 q 2,0 2,1.9 V 9.75 L 45.05,10 44.4,9.8 44.35,6.3 44.15,5.6 Q 43.95,5.35 43.6,5.35 h -1 q -0.25,0 -0.2,0.75"
         id="path38"
         inkscape:connector-curvature="0"
         style="fill:#000000;fill-rule:evenodd;stroke:none" />
      <path
         d="m 77.4,6 v 1.9 q 0,1.15 -0.6,1.65 Q 76.3,10 75.4,10 L 74.5,9.8 74.4,9.35 q 0,-0.3 0.15,-0.4 L 75.1,9.1 75.8,8.8 76.1,7.95 V 6 L 75.9,5.4 75.45,5.25 q -0.45,0 -0.75,0.7 l -1.35,3.8 -0.75,0.2 q -0.55,0 -0.7,-0.2 L 73.2,6.5 72.85,6.45 72.6,6.2 71.8,4.5 q 0.05,-0.2 0.6,-0.2 l 0.7,0.2 0.7,1.4 0.1,-0.35 q 0.5,-1.25 1.8,-1.25 0.75,0 1.15,0.35 0.55,0.4 0.55,1.35 m -6.35,1.9 q 0,1.15 -0.65,1.65 Q 69.9,10 69.05,10 L 68.15,9.8 68,9.4 68.2,8.95 68.75,9.15 69.4,8.85 69.7,8 V 6 L 69.5,5.45 69.1,5.25 Q 68.6,5.25 68.35,6 L 66.95,9.75 66.25,10 65.55,9.75 66.8,6.55 66.45,6.45 66.2,6.2 65.4,4.5 l 0.65,-0.2 0.7,0.2 0.7,1.4 0.1,-0.3 Q 68.1,4.3 69.35,4.3 70.1,4.3 70.5,4.65 71.05,5.1 71.05,6 V 7.9 M 64.7,4.5 v 2.45 q 0.05,1.35 -0.8,2.3 -0.85,0.8 -2.3,0.8 -1.5,0 -2.3,-0.8 -0.85,-0.85 -0.85,-2.3 v -2.4 q 0.25,-0.25 0.7,-0.25 0.5,0 0.65,0.25 V 7.1 q 0,1 0.45,1.5 0.5,0.55 1.35,0.55 0.9,0 1.3,-0.55 0.5,-0.5 0.5,-1.55 V 4.55 Q 63.65,4.3 64.1,4.3 l 0.6,0.2 M 62.25,4.55 V 8.4 L 61.6,8.65 60.95,8.4 V 4.55 Q 61.2,4.3 61.6,4.3 62,4.3 62.25,4.55 M 54.8,4.25 q 1.25,0 2.05,0.8 0.8,0.75 0.8,2.05 0,1.35 -0.9,2.15 -0.9,0.8 -2.15,0.8 L 52.75,9.55 52.55,9 q 0,-0.4 0.25,-0.55 0.6,0.65 1.55,0.65 0.85,0 1.35,-0.5 0.6,-0.6 0.6,-1.5 0,-0.9 -0.5,-1.45 -0.4,-0.5 -1,-0.5 -0.6,0 -0.9,0.35 -0.35,0.3 -0.35,0.75 0,0.4 0.35,0.7 0.3,0.3 0.65,0.3 L 55.4,7 55.55,7.3 55.3,7.8 54.9,8 54.4,8.1 Q 53.5,8.1 52.9,7.7 52.25,7.2 52.25,6.35 52.25,5.5 52.9,4.9 53.65,4.25 54.8,4.25 M 50.8,10 Q 50.3,10 50.1,9.75 V 6.3 L 49.85,5.55 49.2,5.35 H 48.15 L 48,5.55 v 4.2 L 47.3,10 46.65,9.75 V 5.2 q 0,-0.4 0.15,-0.65 0.15,-0.15 0.45,-0.15 h 2.1 q 2.1,0 2.1,1.9 V 9.75 L 50.8,10 M 42.4,6.1 v 2.1 q 0,1.85 -1.65,1.85 -0.45,0 -0.65,-0.2 L 39.9,9.4 40.1,8.95 q 0.15,0.2 0.4,0.2 0.55,0 0.55,-0.9 v -1.8 q 0,-0.85 0.4,-1.1 H 40.3 L 40.1,4.85 40.3,4.4 h 3.4 q 2,0 2,1.9 V 9.75 L 45.05,10 44.4,9.8 44.35,6.3 44.15,5.6 Q 43.95,5.35 43.6,5.35 h -1 q -0.25,0 -0.2,0.75"
         id="path40"
         inkscape:connector-curvature="0"
         style="fill:none;stroke:#000000;stroke-width:1.35000002;stroke-linecap:butt;stroke-linejoin:miter" />
      <path
         d="m 7.05,2.95 h -2.1 q -0.4,0 -0.4,0.3 L 4.15,4.7 Q 4.05,5.05 4.1,5.35 L 4.75,7.5 Q 4.8,7.85 5.1,7.85 H 5.8 L 6.15,7.5 7.25,3.3 Q 7.35,2.95 7.05,2.95 m 1.75,0.2 q 1.4,1.35 1.4,3.35 0,1.95 -1.4,3.35 -1.35,1.4 -3.35,1.4 Q 3.5,11.25 2.1,9.85 0.7,8.5 0.7,6.5 q 0,-1.95 1.4,-3.35 1.35,-1.4 3.35,-1.4 1.95,0 3.35,1.4 m -4.45,7.2 H 5.7 L 6.2,9.95 6.45,8.8 Q 6.55,8.45 6.25,8.45 H 4.85 Q 4.5,8.45 4.4,8.8 L 4.1,10 q -0.05,0.35 0.25,0.35"
         id="path42"
         inkscape:connector-curvature="0"
         style="fill:#000000;fill-rule:evenodd;stroke:none" />
      <path
         d="m 7.05,2.95 h -2.1 q -0.4,0 -0.4,0.3 L 4.15,4.7 Q 4.05,5.05 4.1,5.35 L 4.75,7.5 Q 4.8,7.85 5.1,7.85 H 5.8 L 6.15,7.5 7.25,3.3 Q 7.35,2.95 7.05,2.95 m 1.75,0.2 q 1.4,1.35 1.4,3.35 0,1.95 -1.4,3.35 -1.35,1.4 -3.35,1.4 Q 3.5,11.25 2.1,9.85 0.7,8.5 0.7,6.5 q 0,-1.95 1.4,-3.35 1.35,-1.4 3.35,-1.4 1.95,0 3.35,1.4 m -4.45,7.2 H 5.7 L 6.2,9.95 6.45,8.8 Q 6.55,8.45 6.25,8.45 H 4.85 Q 4.5,8.45 4.4,8.8 L 4.1,10 q -0.05,0.35 0.25,0.35"
         id="path44"
         inkscape:connector-curvature="0"
         style="fill:none;stroke:#000000;stroke-width:1.35000002;stroke-linecap:butt;stroke-linejoin:miter" />
      <path
         d="M 16.75,3.25 V 10 L 16.4,10.4 H 15.15 Q 14.8,10.4 14.8,10 V 4.5 H 11.95 Q 11.6,4.5 11.6,4.15 v -0.9 q 0,-0.4 0.35,-0.4 h 4.4 q 0.4,0 0.4,0.4 M 13.8,6.55 12.95,10 12.5,10.4 h -1.3 q -0.3,0 -0.25,-0.4 L 11.8,6.6 q 0.1,-0.4 0.45,-0.4 h 1.3 q 0.3,0 0.25,0.35"
         id="path46"
         inkscape:connector-curvature="0"
         style="fill:#000000;fill-rule:evenodd;stroke:none" />
      <path
         d="M 16.75,3.25 V 10 L 16.4,10.4 H 15.15 Q 14.8,10.4 14.8,10 V 4.5 H 11.95 Q 11.6,4.5 11.6,4.15 v -0.9 q 0,-0.4 0.35,-0.4 h 4.4 q 0.4,0 0.4,0.4 M 13.8,6.55 12.95,10 12.5,10.4 h -1.3 q -0.3,0 -0.25,-0.4 L 11.8,6.6 q 0.1,-0.4 0.45,-0.4 h 1.3 q 0.3,0 0.25,0.35"
         id="path48"
         inkscape:connector-curvature="0"
         style="fill:none;stroke:#000000;stroke-width:1.35000002;stroke-linecap:butt;stroke-linejoin:miter" />
      <path
         d="m 21.25,10 -0.45,0.35 h -1.3 q -0.3,0 -0.25,-0.35 L 20.7,4.5 h -2.9 q -0.3,0 -0.25,-0.4 l 0.75,-3 0.45,-0.4 h 1.3 q 0.3,0 0.25,0.35 l -0.45,1.8 h 2.9 q 0.3,0 0.25,0.35 L 21.25,10"
         id="path50"
         inkscape:connector-curvature="0"
         style="fill:#373535;fill-rule:evenodd;stroke:none" />
      <path
         d="m 21.25,10 -0.45,0.35 h -1.3 q -0.3,0 -0.25,-0.35 L 20.7,4.5 h -2.9 q -0.3,0 -0.25,-0.4 l 0.75,-3 0.45,-0.4 h 1.3 q 0.3,0 0.25,0.35 l -0.45,1.8 h 2.9 q 0.3,0 0.25,0.35 z"
         id="path52"
         inkscape:connector-curvature="0"
         style="fill:none;stroke:#000000;stroke-width:1.35000002;stroke-linecap:butt;stroke-linejoin:miter" />
      <path
         d="M 30.1,3.2 29.25,6.65 28.8,7 h -0.85 l 1.4,2.5 q 0.2,0.3 -0.1,0.45 l -1.05,0.6 -0.5,-0.1 -1.8,-3.35 -0.7,2.9 -0.45,0.35 h -1.3 q -0.3,0 -0.25,-0.35 L 24.05,6.55 Q 24.15,6.2 24.5,6.2 h 0.85 L 23.95,3.7 Q 23.8,3.4 24.05,3.25 l 1.1,-0.6 0.45,0.1 1.8,3.35 0.75,-2.85 q 0.1,-0.4 0.45,-0.4 h 1.3 q 0.35,0 0.2,0.35"
         id="path54"
         inkscape:connector-curvature="0"
         style="fill:#373535;fill-rule:evenodd;stroke:none" />
      <path
         d="M 30.1,3.2 29.25,6.65 28.8,7 h -0.85 l 1.4,2.5 q 0.2,0.3 -0.1,0.45 l -1.05,0.6 -0.5,-0.1 -1.8,-3.35 -0.7,2.9 -0.45,0.35 h -1.3 q -0.3,0 -0.25,-0.35 L 24.05,6.55 Q 24.15,6.2 24.5,6.2 h 0.85 L 23.95,3.7 Q 23.8,3.4 24.05,3.25 l 1.1,-0.6 0.45,0.1 1.8,3.35 0.75,-2.85 q 0.1,-0.4 0.45,-0.4 h 1.3 q 0.35,0 0.2,0.35 z"
         id="path56"
         inkscape:connector-curvature="0"
         style="fill:none;stroke:#000000;stroke-width:1.35000002;stroke-linecap:butt;stroke-linejoin:miter" />
      <path
         d="m 36.15,5.35 v 4.6 q 0,0.4 -0.35,0.4 h -1.25 q -0.35,0 -0.35,-0.4 V 5.6 L 34.25,5 34.7,3.2 q 0.1,-0.35 0.45,-0.35 h 1.3 q 0.3,0 0.25,0.35 L 36.15,5.35 M 31.1,5 31.55,3.2 Q 31.65,2.85 32,2.85 h 1.3 q 0.3,0 0.25,0.35 L 33,5.35 v 4.6 q 0,0.4 -0.35,0.4 H 31.4 q -0.35,0 -0.35,-0.4 V 5.6 L 31.1,5"
         id="path58"
         inkscape:connector-curvature="0"
         style="fill:#373535;fill-rule:evenodd;stroke:none" />
      <path
         d="m 36.15,5.35 v 4.6 q 0,0.4 -0.35,0.4 h -1.25 q -0.35,0 -0.35,-0.4 V 5.6 L 34.25,5 34.7,3.2 q 0.1,-0.35 0.45,-0.35 h 1.3 q 0.3,0 0.25,0.35 L 36.15,5.35 M 31.1,5 31.55,3.2 Q 31.65,2.85 32,2.85 h 1.3 q 0.3,0 0.25,0.35 L 33,5.35 v 4.6 q 0,0.4 -0.35,0.4 H 31.4 q -0.35,0 -0.35,-0.4 V 5.6 L 31.1,5"
         id="path60"
         inkscape:connector-curvature="0"
         style="fill:none;stroke:#000000;stroke-width:1.35000002;stroke-linecap:butt;stroke-linejoin:miter" />
      <path
         d="M 7,2.55 H 4.95 Q 4.6,2.55 4.5,2.9 L 4.15,4.3 Q 4.05,4.7 4.1,5 L 4.75,7.15 Q 4.85,7.5 5.1,7.5 H 5.8 L 6.15,7.15 6.65,4.7 7.25,2.9 Q 7.35,2.55 7,2.55 m 1.8,0.2 q 1.4,1.4 1.4,3.35 0,2 -1.4,3.35 -1.4,1.4 -3.35,1.4 -2,0 -3.35,-1.35 -1.4,-1.4 -1.4,-3.35 0,-2 1.4,-3.4 1.35,-1.4 3.35,-1.4 1.95,0 3.35,1.4 M 4.35,9.95 H 5.7 L 6.15,9.6 6.45,8.4 Q 6.5,8.05 6.2,8.05 H 4.85 q -0.4,0 -0.5,0.4 L 4.1,9.6 Q 4,9.95 4.35,9.95"
         id="path62"
         inkscape:connector-curvature="0"
         style="fill:#f68c35;fill-rule:evenodd;stroke:none" />
      <path
         d="m 16.7,2.85 0.05,6.75 q 0,0.4 -0.4,0.4 h -1.2 Q 14.8,10 14.8,9.6 V 4.1 H 11.95 Q 11.6,4.1 11.6,3.75 l -0.05,-0.9 q 0,-0.35 0.4,-0.35 h 4.4 q 0.35,0 0.35,0.35 M 13.55,5.8 q 0.3,0 0.25,0.4 L 12.95,9.6 12.45,10 H 11.2 Q 10.8,10 10.95,9.65 L 11.8,6.2 q 0.1,-0.35 0.45,-0.35 l 1.3,-0.05"
         id="path64"
         inkscape:connector-curvature="0"
         style="fill:#f68c35;fill-rule:evenodd;stroke:none" />
      <path
         d="M 21.25,9.6 20.8,10 h -1.3 q -0.3,0 -0.25,-0.35 l 1.4,-5.55 h -2.9 q -0.35,0 -0.2,-0.35 L 18.3,0.7 18.75,0.3 h 1.3 q 0.3,0 0.25,0.35 l -0.45,1.85 2.9,-0.05 q 0.35,0 0.2,0.4 l -1.7,6.75"
         id="path66"
         inkscape:connector-curvature="0"
         style="fill:#f68c35;fill-rule:evenodd;stroke:none" />
      <path
         d="m 30.1,2.8 -0.85,3.45 -0.45,0.4 h -0.9 l 1.45,2.5 Q 29.5,9.4 29.25,9.6 l -1.1,0.6 q -0.3,0.15 -0.45,-0.15 L 25.9,6.75 25.2,9.6 24.7,10 h -1.25 q -0.4,0 -0.25,-0.4 l 0.85,-3.4 q 0.1,-0.4 0.45,-0.4 h 0.85 L 23.95,3.3 Q 23.75,3 24.05,2.85 L 25.1,2.25 Q 25.45,2.1 25.6,2.4 l 1.8,3.3 0.7,-2.85 q 0.1,-0.4 0.5,-0.4 h 1.25 q 0.4,0 0.25,0.35"
         id="path68"
         inkscape:connector-curvature="0"
         style="fill:#f68c35;fill-rule:evenodd;stroke:none" />
      <path
         d="m 36.1,5 0.05,4.55 q 0,0.4 -0.4,0.4 h -1.2 Q 34.2,9.95 34.2,9.6 L 34.15,5.25 34.25,4.6 34.7,2.85 q 0.1,-0.4 0.45,-0.4 h 1.3 q 0.35,0 0.2,0.35 L 36.1,5 M 33.55,2.8 33,5 v 4.6 q 0,0.35 -0.4,0.35 h -1.2 q -0.35,0 -0.35,-0.35 V 5.25 L 31.1,4.6 31.55,2.85 q 0.1,-0.4 0.45,-0.4 h 1.3 q 0.3,0 0.25,0.35"
         id="path70"
         inkscape:connector-curvature="0"
         style="fill:#f68c35;fill-rule:evenodd;stroke:none" />
      <path
         d="m 77.2,5.5 v 1.9 q 0,1.15 -0.6,1.65 Q 76.1,9.5 75.2,9.5 L 74.3,9.3 74.2,8.9 q 0,-0.3 0.15,-0.45 l 0.55,0.2 0.7,-0.3 0.3,-0.85 v -2 L 75.7,4.95 75.25,4.75 Q 74.8,4.75 74.5,5.5 L 73.15,9.25 72.4,9.5 71.7,9.25 73,6.05 72.65,5.95 72.4,5.75 71.6,4.05 q 0.1,-0.25 0.6,-0.25 0.5,0 0.75,0.25 L 73.6,5.4 73.75,5.1 q 0.45,-1.3 1.75,-1.3 0.65,0 1.2,0.4 0.5,0.35 0.5,1.3 M 66.25,6 66,5.75 65.2,4.05 q 0.15,-0.25 0.65,-0.25 0.55,0 0.7,0.25 l 0.7,1.35 0.1,-0.3 q 0.55,-1.3 1.8,-1.3 0.65,0 1.15,0.4 0.55,0.45 0.55,1.3 v 1.95 q 0,1.1 -0.65,1.6 Q 69.75,9.5 68.85,9.5 L 67.95,9.3 67.8,8.9 68,8.45 q 0.25,0.2 0.55,0.2 L 69.2,8.35 69.5,7.5 v -2 L 69.3,4.95 68.9,4.75 q -0.5,0 -0.75,0.75 l -1.4,3.75 -0.7,0.25 q -0.55,0 -0.7,-0.25 L 66.6,6.05 66.25,6 M 64.5,4.05 64.55,6.5 q 0,1.4 -0.85,2.25 Q 62.75,9.6 61.4,9.6 59.95,9.6 59.1,8.75 58.25,7.9 58.25,6.5 V 4.05 l 0.7,-0.2 0.65,0.2 V 6.6 q 0,1 0.45,1.5 0.55,0.6 1.35,0.6 0.85,0 1.3,-0.55 Q 63.2,7.6 63.2,6.6 V 4.05 L 63.9,3.8 q 0.45,0 0.6,0.25 m -2.45,0 v 3.9 l -0.65,0.2 -0.65,-0.2 v -3.9 l 0.65,-0.2 0.65,0.2 M 54.6,3.8 q 1.3,0 2.05,0.75 0.8,0.8 0.8,2.1 0,1.3 -0.9,2.1 -0.8,0.8 -2.15,0.8 -1.15,0 -1.85,-0.5 L 52.35,8.5 q 0,-0.4 0.25,-0.55 0.6,0.65 1.55,0.65 0.85,0 1.35,-0.5 0.6,-0.6 0.6,-1.45 0,-0.95 -0.5,-1.45 -0.35,-0.5 -1,-0.5 -0.6,0 -0.9,0.3 -0.35,0.35 -0.35,0.8 0,0.4 0.35,0.7 L 54.35,6.75 55.2,6.5 55.35,6.85 55.1,7.3 54.7,7.55 54.2,7.65 52.75,7.2 Q 52.05,6.7 52.05,5.85 52.05,5 52.7,4.4 53.4,3.8 54.6,3.8 M 51.25,9.3 50.6,9.55 49.9,9.3 V 5.85 L 49.65,5.1 Q 49.4,4.85 49,4.85 h -1.05 q -0.15,0 -0.15,0.2 V 9.3 L 47.1,9.55 46.45,9.3 V 4.75 q 0,-0.45 0.15,-0.7 0.15,-0.15 0.45,-0.15 h 2.1 q 2.1,0 2.1,1.95 V 9.3 M 45.5,5.85 V 9.3 l -0.65,0.25 q -0.5,0 -0.65,-0.25 V 5.8 L 43.95,5.1 43.4,4.85 h -1 q -0.2,0 -0.2,0.75 v 2.1 q 0,1.85 -1.65,1.85 L 39.9,9.4 39.7,8.95 39.9,8.45 q 0.15,0.2 0.4,0.2 0.55,0 0.55,-0.9 v -1.8 q 0,-0.8 0.4,-1.1 H 40.1 L 39.9,4.4 40.1,3.95 h 3.4 q 2,-0.05 2,1.9"
         id="path72"
         inkscape:connector-curvature="0"
         style="fill:#f68c35;fill-rule:evenodd;stroke:none" />
    </g>
    <g
       id="sprite1"
       transform="translate(2.55,2.3)">
      <use
         height="546.04999"
         transform="translate(-2.55,-2.3)"
         width="582.79999"
         xlink:href="#shape2"
         id="use75"
         x="0"
         y="0" />
    </g>
    <g
       id="shape2"
       transform="translate(2.55,2.3)">
      <path
         d="M 378.95,288.8 Q 365.4,230.2 338.65,205.7 311.9,181.3 274.5,189 q -37.45,7.7 -50.9,40.35 -13.45,32.7 0.2,91.35 24.85,106.75 102.4,90.8 77.55,-15.9 52.75,-122.7 M 527.3,119.95 q 5.6,4.45 7.85,15.5 1.75,10.5 -1.1,26.55 -1.05,4.35 -2.7,7.6 20.1,33.05 30.2,76.55 13.25,57.05 3.5,103.45 -9.75,46.4 -39,81.5 -29.25,35.05 -73.4,58.2 -44.1,23.15 -100.3,34.7 -56.2,11.55 -106.6,7.8 -50.55,-3.75 -92.5,-24.1 -42.3,-20.45 -71.6,-58.75 -6.15,-7.95 -11.8,-17.15 -4.8,-1.95 -10.75,-5.55 -4.1,-2.5 -6.5,-4.85 -2.75,-2.75 -3.95,-5.8 2.2,-7.95 5.55,-14.35 -8.75,-20.7 -14.45,-44.15 -10.65,-3.15 -18.4,-8.95 -5.7,-4.35 -8.55,-8.2 Q 9.85,336 9.6,332.2 9,325.2 15.65,316.2 20.75,309 31.6,301.55 30.75,280.4 33.75,261.25 22.9,251.15 16.45,239.45 6.1,221.35 9.6,210.2 13.45,200.45 29.1,191.65 42.95,184 66.3,180.2 q 4.3,-5.9 8.3,-10.75 10.35,-12.35 22.5,-23.25 -1.7,-3.05 -3.2,-7 -9.75,-24.7 -7.1,-45.6 1.75,-11.25 4.9,-17.95 3.25,-7 8.35,-9.85 9.7,-6.55 29.05,-4.9 18.75,1.8 43.85,13.95 14.1,7.15 20.4,16.8 22.85,-8.05 47.6,-13.55 -0.45,-5.05 0.45,-10.85 2.75,-24.2 15.7,-40.6 11.65,-16.2 24.3,-17.9 11,-0.55 26.9,8.85 15.4,10.3 30.55,30.25 7.95,10.45 9.45,20.45 l 6.65,0.4 q 16.7,1.3 32.35,4.35 1,-3.65 3.75,-8 7.8,-13 20.25,-20.15 11.95,-6.35 19.6,-4.35 6.1,1.9 13.6,11.65 7.2,10.35 10.75,25.05 2.8,11.8 -1.5,18.8 19.6,10.4 36,24.5 8.75,-3.7 17.6,-4.45 13.35,-1.45 19.95,3.85"
         id="path78"
         inkscape:connector-curvature="0"
         style="fill:url(#gradient0);fill-rule:evenodd;stroke:none" />
      <path
         d="m 331.25,213.8 v 0.05 q -22.75,-20.6 -54.5,-14.05 -31.55,6.45 -42.95,33.75 -11.95,30.3 0.75,84.65 11.4,49.2 34.6,70.35 21.85,18.95 54.85,12.2 66.15,-15.05 44.25,-109.45 -12.6,-54.5 -37,-77.5 m 14.85,-16.2 q 29.05,26 43.6,88.7 v 0.05 q 27.65,119.2 -61.25,135.95 h -0.05 q -44.55,9.15 -73.85,-17.3 -28.05,-24.25 -41.45,-81.8 -14.65,-62.95 0.35,-98 v -0.05 q 15.4,-38 58.85,-46.9 43,-8.9 73.8,19.35 m 147.95,-66.9 -6.3,2.6 -5.15,-4.4 q -15.5,-13.3 -34,-23.1 l -8.6,-4.65 4.4,-10.85 q 1.7,-3.9 0.15,-10.45 -2.95,-12.3 -8.85,-21.05 -4.5,-5.85 -7.8,-7.6 -4.3,-0.3 -11.1,3.25 -10.05,5.8 -16.3,16.25 l -0.15,0.25 q -1.75,2.7 -2.45,5 l -3.1,9.75 -9.6,-1.85 Q 370.15,80.9 354.1,79.7 l -6.3,-0.4 -8.65,-0.4 -1.7,-8.95 Q 336.1,62.4 330.1,54.5 316.3,36.35 302.35,26.9 290.65,20 282.5,19.75 q -8.35,2 -16.45,13.35 l -0.3,0.4 q -11.05,14.15 -13.4,35 l -0.05,0.3 v 0.15 q -0.7,4.35 -0.4,8.2 l 0.75,9.6 -9.3,2.1 q -24.1,5.35 -46.35,13.2 l -7.75,2.7 -5.1,-7.05 Q 179.05,90.25 168,84.65 l 0.15,0.1 q -23,-11.1 -40.1,-12.9 h 0.15 q -14.6,-1.25 -22,3.1 l -0.45,0.25 -0.3,0.2 q -2.2,1.55 -3.75,4.9 l -0.05,0.05 q -2.5,5.5 -3.9,14.65 -2.2,18.35 6.4,40.15 l 0.05,0.15 q 1.15,3.15 2.5,5.55 l 4.2,7.7 -6.45,5.85 q -11.55,10.35 -21.4,22.15 l 0.05,-0.1 q -3.8,4.6 -7.9,10.25 l -2.65,3.6 -4.45,0.75 Q 47,194.5 34.45,201.3 l 0.05,-0.05 q -11.05,6.2 -14.45,12.6 Q 18.8,221.4 26,234 l 0.05,0.1 0.05,0.05 q 5.65,10.2 15.15,19.05 l 4.25,4 -0.85,5.75 Q 41.8,281.1 42.6,301.1 l 0.2,6.05 -4.95,3.5 q -8.95,6.1 -13.2,11.9 l -0.15,0.2 q -3.65,4.9 -3.95,8.5 v 0.15 l 0.05,0.1 q 0.25,0.85 1.05,1.9 2.15,2.75 6.3,5.95 l 0.1,0.05 q 6.25,4.6 14.85,7.15 l 6.05,1.85 1.5,6.1 q 5.45,22.55 13.9,42.5 l 1.95,4.75 -2.35,4.6 q -1.85,3.5 -3.25,7.55 1.6,1.4 4.15,2.95 H 64.8 q 5.1,3.05 9.2,4.75 l 3.35,1.45 1.9,3 q 5.3,8.7 11.1,16.2 l 0.05,0.05 q 27.7,36.15 67.65,55.5 40.15,19.45 88.55,23.05 48.95,3.6 103.55,-7.6 54.55,-11.25 97.4,-33.7 42.1,-22.1 70.05,-55.5 27.5,-33.05 36.7,-76.7 9.15,-44.25 -3.45,-98.7 -9.7,-41.65 -28.9,-73.3 l -3.05,-5.2 2.65,-5.5 q 1.05,-2.2 1.75,-5.05 2.35,-13.4 1.05,-22.2 -1.3,-6.1 -3.9,-8.85 -4.05,-2.35 -11.9,-1.5 h -0.25 q -7.2,0.65 -14.25,3.65 m -214.1,-132.85 0.5,-0.05 h 0.4 q 13.6,-1.15 33.05,10.35 l 0.55,0.3 q 16.75,11.1 33.15,32.75 6.4,8.4 9.4,16.65 12.15,0.95 23.8,2.9 l 0.95,-1.55 -0.1,0.2 q 9.3,-15.55 24.2,-24.05 l 0.3,-0.15 q 16.7,-8.9 27.55,-5.3 l 0.5,0.15 q 8.75,2.1 19.05,15.45 l 0.3,0.45 q 8.3,11.85 12.4,28.75 2.15,9.1 1.2,16.25 13.1,7.7 24.8,17.1 7.05,-2.25 14.2,-2.85 l 0.3,-0.05 q 18.65,-1.95 27.75,6.25 l -0.05,-0.05 q 8.55,6.1 11.8,21.9 l 0.05,0.2 v 0.2 q 2.15,12 -1.1,30.3 l -0.15,0.65 -1.15,4.1 q 18.85,32.75 28.7,74.95 13.85,59.65 3.55,108.2 -10.35,49.15 -41.35,86.3 -30.55,36.7 -76.75,60.9 h 0.05 q -45.4,23.85 -103.2,35.75 -57.85,11.85 -109.65,8 -52.75,-3.95 -96.5,-25.2 -44.6,-21.55 -75.5,-61.95 v 0.05 q -5.5,-7.15 -10.6,-15.15 -4.15,-2 -8.95,-4.9 -5.4,-3.3 -8.5,-6.4 l -0.05,-0.05 q -4.55,-4.55 -6.4,-9.55 l -1.4,-3.45 1,-3.5 q 1.75,-6.35 4.15,-11.8 -6.8,-16.8 -11.65,-35.3 -8.9,-3.45 -15.8,-8.65 L 14.7,356.9 Q 7.5,351.45 4,346.55 L 3.95,346.5 q -5.1,-6.85 -5.3,-13.55 -1.4,-10.25 8.05,-23.1 l 0.1,-0.15 q 4.7,-6.75 13.65,-13.65 -0.25,-16 1.65,-30.85 -9.35,-9.6 -15.25,-20.45 l 0.05,0.15 q -13.35,-23.35 -7.8,-38 l 0.3,-0.75 q 4.4,-12.9 24.3,-24.1 h 0.05 0.05 q 13.8,-7.8 36.3,-11.9 l 6.05,-7.7 v -0.05 h 0.05 q 8.25,-9.9 17.6,-18.85 l -0.15,-0.45 0.05,0.15 q -10.95,-27.65 -7.8,-51 l 0.05,-0.35 q 2,-13.1 5.8,-20.85 V 71 q 4.8,-10.35 12.5,-14.55 11.95,-8.55 35.8,-6.5 h 0.1 q 20.4,1.8 47.6,15 l 0.1,0.05 0.1,0.05 q 11.95,6.05 19.2,13.7 16,-5.3 32.9,-9.4 l 0.5,-3.75 q 3.15,-27.2 17.8,-45.6 14.9,-20.65 31.6,-22.15"
         id="path80"
         inkscape:connector-curvature="0"
         style="fill:#000000;fill-rule:evenodd;stroke:none" />
      <path
         d="m 328.2,127.55 4.8,11 q 0.65,1.75 0.7,3 2.85,9.95 1,17.4 -17.9,17.5 -38.95,18.15 -20.8,0.6 -44.2,-15.3 -3.95,-9.75 -1.55,-22.8 2.75,-24.35 13,-39.95 7,-10.9 14.15,-14.15 l 2.85,-1.1 2.95,-0.1 q 5,0.1 9.25,2.25 6.65,3.4 11.7,8.65 11,10.7 24.3,32.95"
         id="path82"
         inkscape:connector-curvature="0"
         style="fill:url(#gradient1);fill-rule:evenodd;stroke:none" />
      <path
         d="m 373.05,173.85 q 0.65,-8.05 5.45,-17.15 9.3,-16.65 20.35,-25.25 11.4,-8.8 18.05,-6.4 2.85,1.05 5.65,4.45 2.9,3.45 5.35,8.95 4.2,10.2 5.75,30.4 1.55,14.9 -4.5,24.2 -34.15,16 -56.1,-19.2"
         id="path84"
         inkscape:connector-curvature="0"
         style="fill:url(#gradient2);fill-rule:evenodd;stroke:none" />
      <path
         d="m 165.15,139.35 q 1.5,0.35 2.65,0.95 15.15,4.95 34.65,17.45 17.25,12.2 21.5,25.15 -6.7,23.85 -24.3,34.05 -17.6,10.2 -45.6,6.5 -8,-6.95 -13.3,-19.55 -9.55,-23.45 -8.4,-41.7 0.05,-1.95 0.75,-6.25 1.3,-12.65 8.2,-16.7 8.05,-4.3 23.85,0.1"
         id="path86"
         inkscape:connector-curvature="0"
         style="fill:url(#gradient3);fill-rule:evenodd;stroke:none" />
      <path
         d="m 135,233.2 q 2.8,0.45 4.85,1.7 6.8,2.6 11.35,5.5 5.25,3.3 8.55,7.65 l 0.8,1.05 q 1.25,21 -9.15,34 -10.3,12.85 -32.25,18.05 l -3,0.7 -2.8,0.5 q -6.95,-2.7 -14.7,-10.5 l -2.4,-2.6 q -8.95,-11 -13.65,-20.05 -3.05,-4.55 -5.85,-13.35 -4.45,-16.85 0.9,-22.2 5.45,-5.9 20.2,-6.65 l 7.9,0.45 q 16.55,2 29.25,5.75"
         id="path88"
         inkscape:connector-curvature="0"
         style="fill:url(#gradient4);fill-rule:evenodd;stroke:none" />
      <path
         d="m 68.4,340.35 q -7.65,-7.8 -7.4,-13.9 0.75,-4.85 9.1,-8.8 l 3.55,-2.05 q 11.75,-4.55 30.5,-5.1 11.4,0.45 17.2,3.4 21.55,30.6 -6,50.25 -11.5,0.45 -23.25,-6.65 -14.05,-7.95 -21.65,-15.45 -1,-0.4 -2.05,-1.7"
         id="path90"
         inkscape:connector-curvature="0"
         style="fill:url(#gradient5);fill-rule:evenodd;stroke:none" />
      <path
         d="m 343.15,87.95 q 3.55,-3 17.25,0.35 3.1,1 4.5,1.2 -16.4,51.7 -19.35,81.55 l -0.3,1.7 q -0.05,-1.25 -0.7,-3 -2.9,-40.1 -3.55,-62.25 0,-17.5 2.15,-19.55"
         id="path92"
         inkscape:connector-curvature="0"
         style="fill:url(#gradient6);fill-rule:evenodd;stroke:none" />
      <path
         d="m 217.35,101.1 q 0.15,0.1 0.9,0.75 0.6,0.85 6.35,24 5.7,24 12.35,39.1 l 8.05,15.3 -0.75,0.5 q -43.3,-68.95 -39.05,-70.95 3.75,-2.95 8.15,-6.2 l 3.4,-2.65 0.6,0.15"
         id="path94"
         inkscape:connector-curvature="0"
         style="fill:url(#gradient7);fill-rule:evenodd;stroke:none" />
      <path
         d="m 87.75,179.9 q 1.4,-0.95 1.85,-1.65 7.4,-6.1 7,-17.8 3.55,4.15 15.2,19.45 21.1,26.95 37.6,46.25 7.95,11.25 10.5,16.6 2.6,5.45 -0.15,5.3 -3.3,-4.35 -8.55,-7.65 -4.55,-2.9 -11.35,-5.5 -2.7,-2.6 -4.35,-3.65 -9.3,-7.65 -29.05,-24.65 -18.65,-16.65 -24.25,-24.1 3,-0.85 5.55,-2.6"
         id="path96"
         inkscape:connector-curvature="0"
         style="fill:url(#gradient8);fill-rule:evenodd;stroke:none" />
      <path
         d="m 90.25,287.55 8.4,4.3 22.05,10.25 q -1.8,-0.9 -1.55,-0.95 l 17.6,8.6 q -57.1,-0.7 -84.4,-22.1 -5.05,-13.3 -7.75,-17.5 -1.25,-3.95 -1.95,-4.1 l -0.05,-1.1 1.45,-1.75 q 0.15,-0.1 7.3,3.7 l 21.15,11.4 q 3.5,1.6 8.4,4.2 l 9.35,5.05"
         id="path98"
         inkscape:connector-curvature="0"
         style="fill:url(#gradient9);fill-rule:evenodd;stroke:none" />
      <path
         d="m 511,128 q 7.55,0.4 11.35,4.45 2.15,1.65 -1.15,4.4 -3.55,2.85 -12.3,6.25 -18.6,3.5 -29.25,9.15 4.85,-8.3 12.15,-14.4 Q 504.2,127.3 511,128"
         id="path100"
         inkscape:connector-curvature="0"
         style="fill:url(#gradient10);fill-rule:evenodd;stroke:none" />
      <path
         d="m 422.45,63.55 q 6.2,-0.65 11.75,2.45 2.4,1.55 -0.3,4.7 -2.65,3.05 -10.55,8.05 -18.85,6.45 -27.05,13.2 4.15,-9.65 9.3,-16.3 9.85,-12 16.85,-12.1"
         id="path102"
         inkscape:connector-curvature="0"
         style="fill:url(#gradient11);fill-rule:evenodd;stroke:none" />
      <path
         d="m 383.8,163.45 q 2.5,-9.3 8,-17.05 9.25,-13.4 16,-14.5 7.4,-1.6 12.1,1.35 2.55,1.05 0.05,4.55 -2.7,3.7 -10.3,9.2 -17.05,8.2 -25.85,16.45"
         id="path104"
         inkscape:connector-curvature="0"
         style="fill:url(#gradient12);fill-rule:evenodd;stroke:none" />
      <path
         d="m 257.4,90.35 q -1.25,-15.2 2.65,-28.7 5.4,-23.3 15.35,-27.65 8.9,-4.95 18.2,-3.05 9.15,1.95 -7.35,24.6 -22.6,21.1 -28.85,34.8"
         id="path106"
         inkscape:connector-curvature="0"
         style="fill:url(#gradient13);fill-rule:evenodd;stroke:none" />
      <path
         d="m 261,125.45 q 4.85,-22.15 12.5,-26.15 7.6,-4.05 14.7,-1.45 7.25,2.6 -6.3,23.9 -17.8,18.75 -23.6,32.85 -0.15,-17 2.7,-29.15"
         id="path108"
         inkscape:connector-curvature="0"
         style="fill:url(#gradient14);fill-rule:evenodd;stroke:none" />
      <path
         d="m 106,85.9 q 6.2,-8.75 15.35,-11.5 4.4,-1.25 5.9,5.5 1.5,6.8 -0.05,21.35 -9.8,29.4 -8.5,46.5 -8.7,-13.7 -12.3,-28.65 -7.1,-24 -0.4,-33.2"
         id="path110"
         inkscape:connector-curvature="0"
         style="fill:url(#gradient15);fill-rule:evenodd;stroke:none" />
      <path
         d="m 91.1,238.85 q 2.65,-1.2 5.9,3.6 3.3,4.9 6.95,15.85 1.8,22.7 8.45,35.5 -9.6,-7.9 -18.65,-19.8 -6.3,-9.05 -8.85,-14.9 -2.65,-6.15 -1.75,-9.9 1.45,-7.1 7.95,-10.35 M 141,157.5 q 2.15,-3.4 5.3,-5.55 3.2,-2.1 6.75,-2.5 3.65,-0.7 5.35,5.45 1.7,6.25 1.15,18.65 -6.1,26.9 -4,40.4 -8.95,-15.25 -11.9,-27 -7.6,-22.5 -2.65,-29.45 m -112.5,177 q -3.4,-6.2 -1.95,-11.4 0.8,-5.15 16.35,5.95 13.8,14.25 23.65,19.1 -10.6,-0.1 -19.2,-2.9 Q 31.95,340.6 28.5,334.5 m 48.45,-1.9 q -4.7,0.5 -5.45,-1.65 -1.25,-4.55 1.85,-8.95 1.5,-2.15 6.8,-3.55 4.85,-1.35 14,-2.4 l 10.5,0.05 10.9,0.55 q -10.2,2.5 -25.5,12.2 -8.25,3.25 -13.1,3.75"
         id="path112"
         inkscape:connector-curvature="0"
         style="fill:url(#gradient16);fill-rule:evenodd;stroke:none" />
      <path
         d="m 27.35,225.4 q -0.45,-10.6 5.3,-17.4 4.8,-6.7 19.85,17.8 10.05,28.55 20.6,41.55 -14.75,-6.6 -26,-15.95 -19.3,-15.85 -19.75,-26"
         id="path114"
         inkscape:connector-curvature="0"
         style="fill:url(#gradient17);fill-rule:evenodd;stroke:none" />
      <path
         d="m 100.4,409.85 q 19.05,1.65 15.75,6.75 -2.45,4.6 -9.25,7 -5.75,2.15 -20.6,-4.25 Q 75.85,414 69.55,408.3 79,410.85 87,410.75 l 13.4,-0.9"
         id="path116"
         inkscape:connector-curvature="0"
         style="fill:url(#gradient18);fill-rule:evenodd;stroke:none" />
    </g>
    <linearGradient
       gradientTransform="matrix(0.3421,0,0,-0.3421,288.95,270.7)"
       gradientUnits="userSpaceOnUse"
       id="gradient0"
       spreadMethod="pad"
       x1="-819.20001"
       x2="819.20001">
      <stop
         offset="0.0"
         stop-color="#c1f709"
         id="stop119" />
      <stop
         offset="1.0"
         stop-color="#789f00"
         id="stop121" />
    </linearGradient>
    <linearGradient
       gradientTransform="matrix(-1e-4,-0.0456,-0.0337,5e-4,269.9,145.7)"
       gradientUnits="userSpaceOnUse"
       id="gradient1"
       spreadMethod="pad"
       x1="-819.20001"
       x2="819.20001">
      <stop
         offset="0.0"
         stop-color="#c1f709"
         id="stop124" />
      <stop
         offset="1.0"
         stop-color="#789f00"
         id="stop126" />
    </linearGradient>
    <linearGradient
       gradientTransform="matrix(4.0567,-1.8008,-1.9164,-4.1653,26.3,333.6)"
       gradientUnits="userSpaceOnUse"
       id="gradient2"
       spreadMethod="pad"
       x1="-819.20001"
       x2="819.20001">
      <stop
         offset="0.0"
         stop-color="#c1f709"
         id="stop129" />
      <stop
         offset="1.0"
         stop-color="#789f00"
         id="stop131" />
    </linearGradient>
    <linearGradient
       gradientTransform="matrix(-1e-4,-0.0335,-0.0346,5e-4,158.85,183.4)"
       gradientUnits="userSpaceOnUse"
       id="gradient3"
       spreadMethod="pad"
       x1="-819.20001"
       x2="819.20001">
      <stop
         offset="0.0"
         stop-color="#c1f709"
         id="stop134" />
      <stop
         offset="1.0"
         stop-color="#789f00"
         id="stop136" />
    </linearGradient>
    <linearGradient
       gradientTransform="matrix(-0.0262,-0.0454,0.0398,-0.023,117.7,264.7)"
       gradientUnits="userSpaceOnUse"
       id="gradient4"
       spreadMethod="pad"
       x1="-819.20001"
       x2="819.20001">
      <stop
         offset="0.0"
         stop-color="#c1f709"
         id="stop139" />
      <stop
         offset="1.0"
         stop-color="#789f00"
         id="stop141" />
    </linearGradient>
    <linearGradient
       gradientTransform="matrix(-0.0289,-0.0338,-3.7895,3.3227,21.6,392.2)"
       gradientUnits="userSpaceOnUse"
       id="gradient5"
       spreadMethod="pad"
       x1="-819.20001"
       x2="819.20001">
      <stop
         offset="0.0"
         stop-color="#c1f709"
         id="stop144" />
      <stop
         offset="1.0"
         stop-color="#789f00"
         id="stop146" />
    </linearGradient>
    <linearGradient
       gradientTransform="matrix(0,0.0336,0.0145,0,353.45,117.5)"
       gradientUnits="userSpaceOnUse"
       id="gradient6"
       spreadMethod="pad"
       x1="-819.20001"
       x2="819.20001">
      <stop
         offset="0.0"
         stop-color="#c1f709"
         id="stop149" />
      <stop
         offset="1.0"
         stop-color="#789f00"
         id="stop151" />
    </linearGradient>
    <linearGradient
       gradientTransform="matrix(0.0213,0.0369,0.0212,-0.0122,238.25,128.5)"
       gradientUnits="userSpaceOnUse"
       id="gradient7"
       spreadMethod="pad"
       x1="-819.20001"
       x2="819.20001">
      <stop
         offset="0.0"
         stop-color="#c1f709"
         id="stop154" />
      <stop
         offset="1.0"
         stop-color="#789f00"
         id="stop156" />
    </linearGradient>
    <linearGradient
       gradientTransform="matrix(0.0341,0.0341,0.0341,-0.0341,121.7,204.25)"
       gradientUnits="userSpaceOnUse"
       id="gradient8"
       spreadMethod="pad"
       x1="-819.20001"
       x2="819.20001">
      <stop
         offset="0.0"
         stop-color="#c1f709"
         id="stop159" />
      <stop
         offset="1.0"
         stop-color="#789f00"
         id="stop161" />
    </linearGradient>
    <linearGradient
       gradientTransform="matrix(0.0497,0.0287,0.0287,-0.0497,87.2,292.65)"
       gradientUnits="userSpaceOnUse"
       id="gradient9"
       spreadMethod="pad"
       x1="-819.20001"
       x2="819.20001">
      <stop
         offset="0.0"
         stop-color="#c1f709"
         id="stop164" />
      <stop
         offset="1.0"
         stop-color="#789f00"
         id="stop166" />
    </linearGradient>
    <linearGradient
       gradientTransform="matrix(-0.0143,0.0248,-0.0084,-0.0049,508.25,131)"
       gradientUnits="userSpaceOnUse"
       id="gradient10"
       spreadMethod="pad"
       x1="-819.20001"
       x2="819.20001">
      <stop
         offset="0.0"
         stop-color="#ffffff"
         id="stop169" />
      <stop
         offset="1.0"
         stop-color="#ffffff"
         stop-opacity="0.14117648"
         id="stop171" />
    </linearGradient>
    <linearGradient
       gradientTransform="matrix(-0.0178,0.0309,2.8096,1.5711,414.45,65.1)"
       gradientUnits="userSpaceOnUse"
       id="gradient11"
       spreadMethod="pad"
       x1="-819.20001"
       x2="819.20001">
      <stop
         offset="0.0"
         stop-color="#ffffff"
         id="stop174" />
      <stop
         offset="1.0"
         stop-color="#ffffff"
         stop-opacity="0.14117648"
         id="stop176" />
    </linearGradient>
    <linearGradient
       gradientTransform="matrix(-0.0074,0.0276,-0.0094,-0.0025,405.9,135.55)"
       gradientUnits="userSpaceOnUse"
       id="gradient12"
       spreadMethod="pad"
       x1="-819.20001"
       x2="819.20001">
      <stop
         offset="0.0"
         stop-color="#ffffff"
         id="stop179" />
      <stop
         offset="1.0"
         stop-color="#ffffff"
         stop-opacity="0.14117648"
         id="stop181" />
    </linearGradient>
    <linearGradient
       gradientTransform="matrix(-0.0178,0.0309,2.8096,1.5711,390.95,105.6)"
       gradientUnits="userSpaceOnUse"
       id="gradient13"
       spreadMethod="pad"
       x1="-819.20001"
       x2="819.20001">
      <stop
         offset="0.0"
         stop-color="#ffffff"
         id="stop184" />
      <stop
         offset="1.0"
         stop-color="#ffffff"
         stop-opacity="0.14117648"
         id="stop186" />
    </linearGradient>
    <linearGradient
       gradientTransform="matrix(0.0139,0.0243,-0.8657,0.4974,418.9,27.15)"
       gradientUnits="userSpaceOnUse"
       id="gradient14"
       spreadMethod="pad"
       x1="-819.20001"
       x2="819.20001">
      <stop
         offset="0.0"
         stop-color="#ffffff"
         id="stop189" />
      <stop
         offset="1.0"
         stop-color="#ffffff"
         stop-opacity="0.14117648"
         id="stop191" />
    </linearGradient>
    <linearGradient
       gradientTransform="matrix(0.0079,0.0296,-0.0434,0.0116,111.2,108.9)"
       gradientUnits="userSpaceOnUse"
       id="gradient15"
       spreadMethod="pad"
       x1="-819.20001"
       x2="819.20001">
      <stop
         offset="0.0"
         stop-color="#ffffff"
         id="stop194" />
      <stop
         offset="1.0"
         stop-color="#ffffff"
         stop-opacity="0.14117648"
         id="stop196" />
    </linearGradient>
    <linearGradient
       gradientTransform="matrix(0.0375,0.0375,-0.7042,0.7048,490.5,-140.1)"
       gradientUnits="userSpaceOnUse"
       id="gradient16"
       spreadMethod="pad"
       x1="-819.20001"
       x2="819.20001">
      <stop
         offset="0.0"
         stop-color="#ffffff"
         id="stop199" />
      <stop
         offset="1.0"
         stop-color="#ffffff"
         stop-opacity="0.14117648"
         id="stop201" />
    </linearGradient>
    <linearGradient
       gradientTransform="matrix(0.0348,0.0163,-0.4236,0.9045,135.8,10.9)"
       gradientUnits="userSpaceOnUse"
       id="gradient17"
       spreadMethod="pad"
       x1="-819.20001"
       x2="819.20001">
      <stop
         offset="0.0"
         stop-color="#ffffff"
         id="stop204" />
      <stop
         offset="1.0"
         stop-color="#ffffff"
         stop-opacity="0.14117648"
         id="stop206" />
    </linearGradient>
    <linearGradient
       gradientTransform="matrix(3.4186,-1.5175,-1.6149,-3.51,43.55,435.85)"
       gradientUnits="userSpaceOnUse"
       id="gradient18"
       spreadMethod="pad"
       x1="-819.20001"
       x2="819.20001">
      <stop
         offset="0.0"
         stop-color="#ffffff"
         id="stop209" />
      <stop
         offset="1.0"
         stop-color="#ffffff"
         stop-opacity="0.14117648"
         id="stop211" />
    </linearGradient>
  </defs>
</svg>
